<svg width="135" height="36" viewBox="0 0 135 36" fill="none" xmlns="http://www.w3.org/2000/svg">
<path d="M8.28 9.008C10.056 9.008 11.608 9.368 12.936 10.088C14.28 10.808 15.312 11.808 16.032 13.088C16.752 14.368 17.112 15.824 17.112 17.456C17.112 19.072 16.752 20.528 16.032 21.824C15.312 23.12 14.28 24.144 12.936 24.896C11.608 25.632 10.056 26 8.28 26H1.2V9.008H8.28ZM7.8 21.248C9 21.248 9.952 20.92 10.656 20.264C11.36 19.608 11.712 18.672 11.712 17.456C11.712 16.24 11.36 15.304 10.656 14.648C9.952 13.992 9 13.664 7.8 13.664H6.528V21.248H7.8ZM25.4679 26.168C24.1079 26.168 22.8839 25.888 21.7959 25.328C20.7079 24.768 19.8519 23.968 19.2279 22.928C18.6199 21.872 18.3159 20.64 18.3159 19.232C18.3159 17.824 18.6199 16.6 19.2279 15.56C19.8519 14.504 20.7079 13.696 21.7959 13.136C22.8839 12.576 24.1079 12.296 25.4679 12.296C26.8279 12.296 28.0519 12.576 29.1399 13.136C30.2279 13.696 31.0759 14.504 31.6839 15.56C32.3079 16.6 32.6199 17.824 32.6199 19.232C32.6199 20.64 32.3079 21.872 31.6839 22.928C31.0759 23.968 30.2279 24.768 29.1399 25.328C28.0519 25.888 26.8279 26.168 25.4679 26.168ZM25.4679 21.56C25.9639 21.56 26.3799 21.368 26.7159 20.984C27.0519 20.584 27.2199 20 27.2199 19.232C27.2199 18.464 27.0519 17.888 26.7159 17.504C26.3799 17.104 25.9639 16.904 25.4679 16.904C24.9719 16.904 24.5559 17.104 24.2199 17.504C23.8839 17.888 23.7159 18.464 23.7159 19.232C23.7159 20 23.8759 20.584 24.1959 20.984C24.5319 21.368 24.9559 21.56 25.4679 21.56ZM39.1658 12.296C40.0458 12.296 40.8058 12.48 41.4458 12.848C42.0858 13.2 42.5738 13.688 42.9098 14.312V12.464H48.2138V25.76C48.2138 27.024 47.9818 28.176 47.5178 29.216C47.0538 30.256 46.3018 31.088 45.2618 31.712C44.2378 32.336 42.9178 32.648 41.3018 32.648C39.1258 32.648 37.3978 32.136 36.1178 31.112C34.8538 30.104 34.1338 28.728 33.9578 26.984H39.1898C39.3338 27.688 39.9098 28.04 40.9178 28.04C41.5418 28.04 42.0298 27.88 42.3818 27.56C42.7338 27.24 42.9098 26.64 42.9098 25.76V24.152C42.5738 24.776 42.0858 25.272 41.4458 25.64C40.8058 25.992 40.0458 26.168 39.1658 26.168C38.1098 26.168 37.1578 25.896 36.3098 25.352C35.4618 24.792 34.7898 23.992 34.2938 22.952C33.8138 21.896 33.5738 20.656 33.5738 19.232C33.5738 17.808 33.8138 16.576 34.2938 15.536C34.7898 14.48 35.4618 13.68 36.3098 13.136C37.1578 12.576 38.1098 12.296 39.1658 12.296ZM42.9098 19.232C42.9098 18.512 42.7258 17.952 42.3578 17.552C41.9898 17.152 41.5178 16.952 40.9418 16.952C40.3658 16.952 39.8938 17.152 39.5258 17.552C39.1578 17.952 38.9738 18.512 38.9738 19.232C38.9738 19.952 39.1578 20.512 39.5258 20.912C39.8938 21.312 40.3658 21.512 40.9418 21.512C41.5178 21.512 41.9898 21.312 42.3578 20.912C42.7258 20.512 42.9098 19.952 42.9098 19.232ZM63.7103 19.112C63.7103 19.48 63.6863 19.832 63.6383 20.168H55.0703C55.1503 21.336 55.6383 21.92 56.5343 21.92C57.1103 21.92 57.5263 21.656 57.7823 21.128H63.4223C63.2303 22.088 62.8223 22.952 62.1983 23.72C61.5903 24.472 60.8143 25.072 59.8703 25.52C58.9423 25.952 57.9183 26.168 56.7983 26.168C55.4543 26.168 54.2543 25.888 53.1983 25.328C52.1583 24.768 51.3423 23.968 50.7503 22.928C50.1743 21.872 49.8863 20.64 49.8863 19.232C49.8863 17.824 50.1743 16.6 50.7503 15.56C51.3423 14.504 52.1583 13.696 53.1983 13.136C54.2543 12.576 55.4543 12.296 56.7983 12.296C58.1423 12.296 59.3343 12.576 60.3743 13.136C61.4303 13.68 62.2463 14.464 62.8223 15.488C63.4143 16.512 63.7103 17.72 63.7103 19.112ZM58.3103 17.84C58.3103 17.392 58.1663 17.056 57.8783 16.832C57.5903 16.592 57.2303 16.472 56.7983 16.472C55.8543 16.472 55.3023 16.928 55.1423 17.84H58.3103ZM72.2593 20.936L74.4193 12.464H80.0833L75.5713 26H68.9233L64.4113 12.464H70.0753L72.2593 20.936ZM94.6009 19.112C94.6009 19.48 94.5769 19.832 94.5289 20.168H85.9609C86.0409 21.336 86.5289 21.92 87.4249 21.92C88.0009 21.92 88.4169 21.656 88.6729 21.128H94.3129C94.1209 22.088 93.7129 22.952 93.0889 23.72C92.4809 24.472 91.7049 25.072 90.7609 25.52C89.8329 25.952 88.8089 26.168 87.6889 26.168C86.3449 26.168 85.1449 25.888 84.0889 25.328C83.0489 24.768 82.2329 23.968 81.6409 22.928C81.0649 21.872 80.7769 20.64 80.7769 19.232C80.7769 17.824 81.0649 16.6 81.6409 15.56C82.2329 14.504 83.0489 13.696 84.0889 13.136C85.1449 12.576 86.3449 12.296 87.6889 12.296C89.0329 12.296 90.2249 12.576 91.2649 13.136C92.3209 13.68 93.1369 14.464 93.7129 15.488C94.3049 16.512 94.6009 17.72 94.6009 19.112ZM89.2009 17.84C89.2009 17.392 89.0569 17.056 88.7689 16.832C88.4809 16.592 88.1209 16.472 87.6889 16.472C86.7449 16.472 86.1929 16.928 86.0329 17.84H89.2009ZM101.614 14.96C102.158 14.176 102.822 13.552 103.606 13.088C104.39 12.608 105.206 12.368 106.054 12.368V18.056H104.542C103.534 18.056 102.79 18.232 102.31 18.584C101.846 18.936 101.614 19.56 101.614 20.456V26H96.2859V12.464H101.614V14.96ZM113.513 26.168C112.233 26.168 111.097 25.96 110.105 25.544C109.129 25.128 108.353 24.552 107.777 23.816C107.201 23.08 106.873 22.248 106.793 21.32H111.905C111.969 21.72 112.137 22.016 112.409 22.208C112.697 22.4 113.057 22.496 113.489 22.496C113.761 22.496 113.977 22.44 114.137 22.328C114.297 22.2 114.377 22.048 114.377 21.872C114.377 21.568 114.209 21.352 113.873 21.224C113.537 21.096 112.969 20.952 112.169 20.792C111.193 20.6 110.385 20.392 109.745 20.168C109.121 19.944 108.569 19.56 108.089 19.016C107.625 18.472 107.393 17.72 107.393 16.76C107.393 15.928 107.609 15.176 108.041 14.504C108.489 13.816 109.145 13.28 110.009 12.896C110.873 12.496 111.921 12.296 113.153 12.296C114.977 12.296 116.401 12.744 117.425 13.64C118.465 14.536 119.089 15.704 119.297 17.144H114.569C114.489 16.776 114.321 16.496 114.065 16.304C113.809 16.096 113.465 15.992 113.033 15.992C112.761 15.992 112.553 16.048 112.409 16.16C112.265 16.256 112.193 16.408 112.193 16.616C112.193 16.888 112.361 17.096 112.697 17.24C113.033 17.368 113.569 17.504 114.305 17.648C115.281 17.84 116.105 18.056 116.777 18.296C117.449 18.536 118.033 18.952 118.529 19.544C119.025 20.12 119.273 20.92 119.273 21.944C119.273 22.744 119.041 23.464 118.577 24.104C118.113 24.744 117.441 25.248 116.561 25.616C115.697 25.984 114.681 26.168 113.513 26.168ZM134.492 19.112C134.492 19.48 134.468 19.832 134.42 20.168H125.852C125.932 21.336 126.42 21.92 127.316 21.92C127.892 21.92 128.308 21.656 128.564 21.128H134.204C134.012 22.088 133.604 22.952 132.98 23.72C132.372 24.472 131.596 25.072 130.652 25.52C129.724 25.952 128.7 26.168 127.58 26.168C126.236 26.168 125.036 25.888 123.98 25.328C122.94 24.768 122.124 23.968 121.532 22.928C120.956 21.872 120.668 20.64 120.668 19.232C120.668 17.824 120.956 16.6 121.532 15.56C122.124 14.504 122.94 13.696 123.98 13.136C125.036 12.576 126.236 12.296 127.58 12.296C128.924 12.296 130.116 12.576 131.156 13.136C132.212 13.68 133.028 14.464 133.604 15.488C134.196 16.512 134.492 17.72 134.492 19.112ZM129.092 17.84C129.092 17.392 128.948 17.056 128.66 16.832C128.372 16.592 128.012 16.472 127.58 16.472C126.636 16.472 126.084 16.928 125.924 17.84H129.092Z" fill="white"/>
</svg>
